<svg xmlns="http://www.w3.org/2000/svg" xmlns:xlink="http://www.w3.org/1999/xlink" viewBox="0 0 1344 845"><defs><style>.cls-1,.cls-13,.cls-15,.cls-16,.cls-45{fill:#fff;}.cls-2{fill:#1a4a7a;opacity:0.54;}.cls-11,.cls-12,.cls-14,.cls-27,.cls-28,.cls-3,.cls-33,.cls-38,.cls-4,.cls-7,.cls-9{fill:none;}.cls-11,.cls-13,.cls-14,.cls-3,.cls-45,.cls-7{stroke:#fff;}.cls-11,.cls-12,.cls-13,.cls-14,.cls-24,.cls-25,.cls-27,.cls-28,.cls-29,.cls-3,.cls-32,.cls-33,.cls-34,.cls-36,.cls-38,.cls-4,.cls-40,.cls-41,.cls-42,.cls-43,.cls-44,.cls-45,.cls-47,.cls-48,.cls-49,.cls-50,.cls-54,.cls-55,.cls-56,.cls-57,.cls-58,.cls-59,.cls-7,.cls-8,.cls-9{stroke-miterlimit:10;}.cls-3{stroke-width:5px;}.cls-11,.cls-12,.cls-13,.cls-16,.cls-3,.cls-4,.cls-5{opacity:0.5;}.cls-12,.cls-4{stroke:#bababa;}.cls-4{stroke-width:7px;}.cls-6{fill:#fcfcfc;}.cls-7{stroke-width:2px;}.cls-8{fill:gray;}.cls-8,.cls-9{stroke:gray;}.cls-10{fill:#edf4f4;}.cls-11{stroke-width:3px;}.cls-12{stroke-width:4px;}.cls-15{fill-rule:evenodd;}.cls-17{fill:#25b7d3;}.cls-18{fill:#3e3e3f;}.cls-19{fill:#fa5655;}.cls-20{fill:#f99134;}.cls-21{fill:#facb1b;}.cls-22{fill:#f0f1f1;}.cls-23{fill:#818284;}.cls-24{fill:#f4f3f2;stroke:#f4f3f2;}.cls-25{fill:#db8b0b;stroke:#db8b0b;}.cls-26,.cls-58{fill:#2d0a70;}.cls-27,.cls-58{stroke:#2d0a70;}.cls-28{stroke:#d6d6d6;}.cls-29{fill:#e8e8e8;stroke:#e8e8e8;}.cls-30{fill:#c9821b;}.cls-31{fill:#298cce;}.cls-32{fill:#eaeaea;}.cls-32,.cls-33{stroke:#eaeaea;}.cls-34{fill:#f2f2f2;stroke:#f2f2f2;}.cls-35{fill:#d0f4f3;}.cls-36{fill:#edeeef;stroke:#edeeef;}.cls-37{fill:#bbe6f9;}.cls-38{stroke:#bbe6f9;stroke-width:0.25px;}.cls-39{fill:#f2e4a0;}.cls-40{fill:#868889;stroke:#868889;}.cls-41{fill:#404142;stroke:#404142;}.cls-42{fill:#cca2f4;stroke:#cca2f4;}.cls-43{fill:#8ecbf4;stroke:#8ecbf4;}.cls-44{fill:#5b3f1d;stroke:#5b3f1d;}.cls-46,.cls-59{fill:#d19028;}.cls-47{fill:#9da3a3;stroke:#9da3a3;}.cls-48{fill:#676668;stroke:#676668;}.cls-49{fill:#9cedef;stroke:#9cedef;}.cls-50{fill:#2f4c4b;stroke:#2f4c4b;}.cls-51{fill:#bfb4a3;}.cls-52{fill:#1558ba;}.cls-53{fill:#ce6620;}.cls-54{fill:#1366a5;stroke:#0e5987;stroke-width:0.75px;}.cls-55{fill:#282a2b;stroke:#282a2b;}.cls-56{fill:#316bc9;stroke:#316bc9;}.cls-57{fill:#ad7615;stroke:#ad7615;}.cls-59{stroke:#d19028;}.cls-60{fill:#797a7c;}.cls-61{fill:#2132ce;}.cls-62{fill:#f5f5f7;}</style><symbol id="RSS" data-name="RSS" viewBox="0 0 55.97 55.98"><path id="circle" class="cls-1" d="M15,48.5A7.5,7.5,0,1,1,7.49,41,7.49,7.49,0,0,1,15,48.5Z"/><path class="cls-1" d="M36.77,55.56H26.9A26.91,26.91,0,0,0,19,37,26.74,26.74,0,0,0,.48,29.06V19.22A36.88,36.88,0,0,1,36.77,55.56Z"/><path class="cls-1" d="M56,55.56H46.12A46.24,46.24,0,0,0,.5,9.83V0A56.09,56.09,0,0,1,56,55.56Z"/></symbol><symbol id="Home" data-name="Home" viewBox="0 0 69.46 63.67"><path class="cls-1" d="M69.46,26.51,56.86,16.9V1h-9v9L34.73,0,0,26.51l5.46,7.16L9.2,30.81V63.67H60.26V30.81L64,33.67ZM55.26,58.67H43.73v-19h-18v19H14.2v-31L34.73,12,55.26,27.63Z"/></symbol></defs><title>imgDevops</title><g id="Livello_7" data-name="Livello 7"><rect class="cls-2" width="1344" height="845"/></g><g id="Livello_6" data-name="Livello 6"><polygon class="cls-3" points="450.14 333.14 397.27 363.74 344.34 333.26 344.26 272.18 397.13 241.57 450.07 272.05 450.14 333.14"/><polygon class="cls-3" points="616.44 265.04 563.58 295.64 510.64 265.16 510.57 204.08 563.43 173.47 616.37 203.95 616.44 265.04"/><polygon class="cls-3" points="731.44 265.04 678.58 295.64 625.64 265.16 625.57 204.08 678.43 173.47 731.37 203.95 731.44 265.04"/><polygon class="cls-3" points="792.44 166.04 739.58 196.64 686.64 166.16 686.57 105.08 739.43 74.47 792.37 104.95 792.44 166.04"/><polygon class="cls-3" points="360.44 279.04 307.58 309.64 254.64 279.16 254.57 218.08 307.43 187.47 360.37 217.95 360.44 279.04"/><line id="qui" class="cls-4" x1="105" y1="415" x2="164" y2="415"/><polygon class="cls-3" points="265.44 437.04 212.58 467.64 159.64 437.16 159.57 376.08 212.43 345.47 265.37 375.95 265.44 437.04"/><g class="cls-5"><path class="cls-6" d="M-29.81,589.77a1.39,1.39,0,0,0,.2,1.47c.47.53,1.53,1,3.84,1,5.27,0,4.42-2,4.42-2l-.18-.62" transform="translate(176 -56)"/><path class="cls-7" d="M-31.25,579.37s-3.93-1.85-3-8.12c-9-4.91-14.43-13.92-13.63-22.66a22.29,22.29,0,0,1,6.87-14,21.42,21.42,0,0,1,6.6-4.18c1.9-.62,10.25-3.09,18.57,1.25a23.31,23.31,0,0,1,9.52,9.57,18.74,18.74,0,0,1,2.2,7.06,19.41,19.41,0,0,1-1.1,8,24.87,24.87,0,0,1-2.92,6.27,23.63,23.63,0,0,1-8.27,7.57,11.78,11.78,0,0,1,.28,4c-.16,2.09-.9,4.4-3.23,5.26Z" transform="translate(176 -56)"/><path class="cls-8" d="M-31.25,579.37s11.88-.14,11.94,0,.41,1.76-.19,2.09-11.93.94-11.93.94-.44-.25.17-.86C-31.26,581.54-31.87,580.14-31.25,579.37Z" transform="translate(176 -56)"/><path class="cls-8" d="M-31.19,582.28a.52.52,0,0,1,.25.17.5.5,0,0,1,0,.56c-.64.57-.69.9-.65,1.12.07.45.62.67.62.67a.88.88,0,0,0-.08,1.6c-1.22,1.24-.23,1.21-.23,1.21s.23-.35.39.92,1.6,1.43,1.6,1.43,6.49-.05,7.45,0,1.52-1,1.66-1.32.6-.25.64-.4-.06-.14-.1-.18a1.28,1.28,0,0,1-.24-.93c.24-.15.52-.38.49-.59s-.09-.12-.19-.25a1,1,0,0,1-.22-1c.13-.23.4-.2.45-.36s-.06-.16-.29-.38c-.62-.58.59-1.41-.05-1.85a.56.56,0,0,1-.2-.24c-.12-.31.26-.81.41-1l0,0" transform="translate(176 -56)"/><rect class="cls-9" x="149.39" y="480.74" width="1.9" height="23.8"/><path class="cls-9" d="M-24.72,536.74s1.73-4.65,5.18,0c0,0,4.83-.86,4.83,2.76a3.48,3.48,0,0,1,3.27,3.63,3.65,3.65,0,0,1,.87,4.31s3.17,3.79.37,5.52c0,0,1.18,2.76-1.24,3.79a4.14,4.14,0,0,1-4.31,4.49s-5.86,6.21-9-.69" transform="translate(176 -56)"/><path class="cls-9" d="M-26.61,536.74s.17-4-5,0c0,0-3.62-1.55-4.48,2.76,0,0-3.28,0-3.28,4.32,0,0-1.72,1.55-.69,4.82,0,0-3.42,1-.33,4.14,0,0-1.91,2.76,1.54,4.32,0,0,0,4.14,4,4.14,0,0,6.38,6.21,8.28-.69" transform="translate(176 -56)"/><path class="cls-9" d="M-26.62,541.1s-4.39.59-3.59-2.46" transform="translate(176 -56)"/><path class="cls-9" d="M-39.38,543.82s2.53.86,3-.47,3.39-2.19,4.78-.79a.81.81,0,0,0,.67.32c.59-.09.9-1.34,1.07-2.44" transform="translate(176 -56)"/><path class="cls-9" d="M-40.34,547.43c2.3-.77,3.33-.51,3.82,0s.46,1.41,1.2,1.84a2.15,2.15,0,0,0,1.7.08,2.78,2.78,0,0,0,1.41-1,2.88,2.88,0,0,0,.6-1.84,2.18,2.18,0,0,0,2-1.56,2.18,2.18,0,0,0-1-2.43" transform="translate(176 -56)"/><path class="cls-9" d="M-38,559.84c2.28-1.09,2.93-2.23,3.12-3.06.32-1.41-.6-2.45.07-3.25s2.8-.8,2.8-.8a2.55,2.55,0,0,0,1.23-2.84,2.47,2.47,0,0,0-1.47-1.51" transform="translate(176 -56)"/><path class="cls-9" d="M-32.46,561.16s-.89-3.57.65-3.32,3.73-2.84,3.73.49" transform="translate(176 -56)"/><path class="cls-9" d="M-34.93,556.3s3.57-1.52,2.41,1.87" transform="translate(176 -56)"/><path class="cls-9" d="M-24.72,541.14s2.44.49,3.77-.19a1.46,1.46,0,0,0,.83-1.59" transform="translate(176 -56)"/><path class="cls-9" d="M-16.49,539.11s-.67,5-5,2" transform="translate(176 -56)"/><path class="cls-9" d="M-19,542.07a5.91,5.91,0,0,0-1.12,3.38,2.86,2.86,0,0,0-2.31,3.79s-1.57,1-2.31,0" transform="translate(176 -56)"/><path class="cls-9" d="M-20.1,545.45c1.07.28,2.19.74,2.37,1.56.12.58-.37.86-.41,1.64a3,3,0,0,0,2,2.75c.33.08.89.11,3.83-1.82.92-.6,1.66-1.13,2.17-1.5" transform="translate(176 -56)"/><path class="cls-9" d="M-15.1,556.77c-.71-.73-.82-1.26-.76-1.63.12-.9,1.23-1.13,1.54-2.15a2.54,2.54,0,0,0-.34-1.93" transform="translate(176 -56)"/><path class="cls-9" d="M-23.06,559.39c.17,0,4.35.93,4.08,4.05" transform="translate(176 -56)"/><path class="cls-9" d="M-15.75,561.24a26.69,26.69,0,0,0-1.92-3.57,26.93,26.93,0,0,0-2.79-3.62,2.79,2.79,0,0,0,.95-2.63,2.89,2.89,0,0,0-2.9-2.18" transform="translate(176 -56)"/><path class="cls-9" d="M-20.51,560.46s-.79-4,1.87-4.17" transform="translate(176 -56)"/><path class="cls-10" d="M-45.47,546.52a2,2,0,0,0,2.29-.52s.11-1.76.3-2.82a14,14,0,0,1,1.11-3.45,14.15,14.15,0,0,1,3.17-4.21,13.36,13.36,0,0,1,6.32-3.41,12.29,12.29,0,0,1,2.76-.27c.27-.22.56-.49.49-.63-.24-.54-5.95.35-10,3.71C-44.25,539.17-46.39,545.83-45.47,546.52Z" transform="translate(176 -56)"/></g><polygon class="cls-3" points="205.44 533.04 152.58 563.64 99.64 533.16 99.57 472.08 152.43 441.47 205.37 471.95 205.44 533.04"/><use width="55.97" height="55.98" transform="translate(172.61 396.86) rotate(-45)" xlink:href="#RSS"/><polygon class="cls-3" points="184.44 461.04 131.58 491.64 78.64 461.16 78.57 400.08 131.43 369.47 184.37 399.95 184.44 461.04"/><polyline class="cls-11" points="259.5 401.5 313.5 401.5 313.5 571.5 398.5 571.5"/><polyline class="cls-11" points="195.5 503.5 273.5 503.5 273.5 566.5 398.5 566.5"/><polyline class="cls-11" points="360.5 331.5 360.5 590.5 398.5 590.5"/><line class="cls-11" x1="595.5" y1="269.5" x2="595.5" y2="410.5"/><line class="cls-11" x1="665.5" y1="278.5" x2="665.5" y2="331.5"/><line class="cls-11" x1="716.5" y1="174.5" x2="716.5" y2="297.5"/><polyline class="cls-12" points="391.09 303 391.09 320.35 373.75 320.35 373.75 303"/><polyline class="cls-12" points="401.83 295 401.83 277.65 419.17 277.65 419.17 295"/><rect class="cls-13" x="400.5" y="302.5" width="19" height="19"/><rect class="cls-13" x="373" y="276" width="19" height="19"/><path class="cls-14" d="M-234.5,326.5" transform="translate(176 -56)"/><use width="69.46" height="63.67" transform="translate(272.39 212.6)" xlink:href="#Home"/><g class="cls-5"><path class="cls-1" d="M580.23,193.07a23.22,23.22,0,1,0-32.84,0A23.22,23.22,0,0,0,580.23,193.07ZM551.5,189a17.42,17.42,0,1,1,24.63,0A17.44,17.44,0,0,1,551.5,189Z" transform="translate(176 -56)"/><path class="cls-1" d="M569.62,223.18v-20.1a27.22,27.22,0,0,1-11.61,0v20.1a5.81,5.81,0,0,0,11.61,0Z" transform="translate(176 -56)"/></g><g class="cls-5"><path class="cls-1" d="M516.13,281.26V271a13.63,13.63,0,0,0-27.26,0v10.28a6.85,6.85,0,0,0-6.87,6.83v17.08a6.83,6.83,0,0,0,6.83,6.83h27.34a6.83,6.83,0,0,0,6.83-6.83V288.09A6.85,6.85,0,0,0,516.13,281.26Zm-11.94,16.55v5.53a1.71,1.71,0,0,1-1.62,1.74,1.68,1.68,0,0,1-1.76-1.68v-5.59a3.33,3.33,0,0,1-1.69-2.86,3.38,3.38,0,0,1,6.76,0A3.33,3.33,0,0,1,504.19,297.81Zm5.18-16.56H495.74V271a6.82,6.82,0,1,1,13.63,0v10.25Z" transform="translate(176 -56)"/></g><g class="cls-5"><path class="cls-15" d="M417.2,290.72a4.21,4.21,0,0,1-1.22,3l-12.54,12.54a4.18,4.18,0,0,1-5.91-5.91l9.58-9.59-9.58-9.58a4.18,4.18,0,0,1,5.91-5.92L416,287.77A4.17,4.17,0,0,1,417.2,290.72Zm-38.84-15.5a4.19,4.19,0,0,1,0,5.92l-9.59,9.58,9.59,9.59a4.18,4.18,0,0,1-5.92,5.91L359.9,293.68a4.18,4.18,0,0,1,0-5.91l12.54-12.55A4.19,4.19,0,0,1,378.36,275.22Z" transform="translate(176 -56)"/></g><rect class="cls-16" x="192" y="498.5" width="6" height="9.5"/><rect class="cls-16" x="255.3" y="396.85" width="6" height="9.5"/><rect class="cls-16" x="181.49" y="381.16" width="6" height="9.5" transform="translate(746.4 145.42) rotate(90)"/><rect class="cls-16" x="416.6" y="319.27" width="6" height="9.5" transform="translate(919.62 -151.58) rotate(90)"/><rect class="cls-16" x="486.21" y="328.91" width="6" height="9.5" transform="translate(998.88 -211.55) rotate(90)"/><rect class="cls-16" x="537.21" y="348.91" width="6" height="9.5" transform="translate(1069.88 -242.55) rotate(90)"/><rect class="cls-16" x="537.68" y="224.58" width="6" height="9.5" transform="translate(946.01 -367.34) rotate(90)"/><g class="cls-5"><path class="cls-1" d="M848.19,246.07c49.78,0,90.14,39.33,92.42,88.55a94.34,94.34,0,0,1,13.72-1.37,92.89,92.89,0,0,1,92.82,96.08c-1.7,50.21-43.72,89.67-94,89.67h-251a79.49,79.49,0,0,1-18.71-156.78c0-.83-.24-1.6-.24-2.43a53.06,53.06,0,0,1,53.07-53.07,52.44,52.44,0,0,1,23.28,5.6c11.52-38.24,46.58-66.25,88.55-66.25m0-29.65a121.9,121.9,0,0,0-105.91,60.89c-1.95-.18-3.94-.24-5.92-.24a83.65,83.65,0,0,0-81.09,63.79,109.41,109.41,0,0,0-62.94,101C593.26,501.33,643.89,550,703.41,550H953c66.57,0,123.31-54.43,124.48-121,1.15-65-48.36-118.94-111.62-124.87a122.74,122.74,0,0,0-117.69-87.72Z" transform="translate(176 -56)"/></g><g id="Multicolor"><circle class="cls-17" cx="1028.5" cy="259.62" r="55"/><path class="cls-18" d="M861,348H845a2,2,0,0,1-2-2V318a2,2,0,0,1,2-2h16a2,2,0,0,1,2,2v28A2,2,0,0,1,861,348Z" transform="translate(176 -56)"/><path class="cls-18" d="M883,348H867a2,2,0,0,1-2-2V318a2,2,0,0,1,2-2h16a2,2,0,0,1,2,2v28A2,2,0,0,1,883,348Z" transform="translate(176 -56)"/><path class="cls-18" d="M839,348H823a2,2,0,0,1-2-2V318a2,2,0,0,1,2-2h16a2,2,0,0,1,2,2v28A2,2,0,0,1,839,348Z" transform="translate(176 -56)"/><circle class="cls-19" cx="1012" cy="264.12" r="1.5"/><circle class="cls-20" cx="1007" cy="264.12" r="1.5"/><circle class="cls-21" cx="1002" cy="264.12" r="1.5"/><path class="cls-22" d="M873.5,302.59a9.4,9.4,0,0,0-5.9-8.72c-2.74-6.69-7.16-9.42-12.58-9.42a13.11,13.11,0,0,0-11.67,7.15,5.38,5.38,0,0,0-7.47,4.74,8.07,8.07,0,0,0-5.29,8.85,8.23,8.23,0,0,0,8.22,6.81h26.63S873.5,310.51,873.5,302.59Z" transform="translate(176 -56)"/><path class="cls-1" d="M855,284.05a13.1,13.1,0,0,0-11.67,7.14,5.38,5.38,0,0,0-7.47,4.74,8.06,8.06,0,0,0,2,15.63l24.92-24.92A12.11,12.11,0,0,0,855,284.05Z" transform="translate(176 -56)"/><circle class="cls-19" cx="1034" cy="264.12" r="1.5"/><circle class="cls-20" cx="1029" cy="264.12" r="1.5"/><circle class="cls-21" cx="1024" cy="264.12" r="1.5"/><circle class="cls-19" cx="1056" cy="264.12" r="1.5"/><circle class="cls-20" cx="1051" cy="264.12" r="1.5"/><circle class="cls-21" cx="1046" cy="264.12" r="1.5"/><rect class="cls-23" x="997" y="285" width="20" height="2"/><rect class="cls-23" x="997" y="280" width="20" height="2"/><rect class="cls-23" x="997" y="275" width="20" height="2"/><rect class="cls-23" x="997" y="270" width="20" height="2"/><rect class="cls-23" x="1019" y="285" width="20" height="2"/><rect class="cls-23" x="1019" y="280" width="20" height="2"/><rect class="cls-23" x="1019" y="275" width="20" height="2"/><rect class="cls-23" x="1019" y="270" width="20" height="2"/><rect class="cls-23" x="1041" y="285" width="20" height="2"/><rect class="cls-23" x="1041" y="280" width="20" height="2"/><rect class="cls-23" x="1041" y="275" width="20" height="2"/><rect class="cls-23" x="1041" y="270" width="20" height="2"/></g></g><g id="Livello_4" data-name="Livello 4"><rect class="cls-24" x="652.26" y="331.37" width="350.07" height="385.47"/><rect class="cls-1" x="679" y="370" width="294" height="158"/><rect class="cls-25" x="827.03" y="418.78" width="110.13" height="7.87"/><rect class="cls-26" x="825.07" y="436.48" width="90.47" height="7.87"/><rect class="cls-26" x="825.07" y="452.21" width="90.47" height="7.87"/><rect class="cls-26" x="825.07" y="467.95" width="90.47" height="7.87"/><rect class="cls-26" x="825.07" y="483.68" width="90.47" height="7.87"/><line class="cls-27" x1="787.7" y1="393.21" x2="787.7" y2="495.48"/><line class="cls-27" x1="707.07" y1="406.98" x2="714.93" y2="406.98"/><line class="cls-27" x1="707.07" y1="446.31" x2="714.93" y2="446.31"/><line class="cls-27" x1="707.07" y1="481.71" x2="714.93" y2="481.71"/><line class="cls-28" x1="722.8" y1="406.98" x2="773.93" y2="406.98"/><line class="cls-28" x1="722.8" y1="446.31" x2="773.93" y2="446.31"/><line class="cls-28" x1="722.8" y1="481.71" x2="773.93" y2="481.71"/><rect class="cls-1" x="682" y="568.25" width="310.23" height="149.47"/><path class="cls-25" d="M524.47,750.11H805.15V671.45C792,686.08,773.64,701.23,753.45,699c-16.09-1.79-19.84-13.12-33.24-11.8-23.7,2.34-26.15,39.19-51.71,43.27-12.72,2-25.09-5-36.93-11.8-15.73-9-18.32-16.22-25.85-19.67C593.8,693.51,571.28,698.3,524.47,750.11Z" transform="translate(176 -56)"/></g><g id="Livello_2" data-name="Livello 2"><rect class="cls-29" x="1004.03" y="406.98" width="129.8" height="314.67"/><path class="cls-30" d="M247.54,776.23a25.6,25.6,0,0,0,5.4-4.49l5.67,3.25,5.17-8.88-5.66-3.24a24.53,24.53,0,0,0,1.22-6.89l6.45-1.12L264,744.77l-6.44,1.12a25.07,25.07,0,0,0-3.54-6l4.21-5-7.92-6.59-4.21,5a25,25,0,0,0-6.63-2.4v-6.48H229.12v6.48a25.25,25.25,0,0,0-6.63,2.4l-4.21-5-7.92,6.59,4.22,5a24.75,24.75,0,0,0-3.54,6l-6.44-1.12-1.8,10.09,6.45,1.12a24.53,24.53,0,0,0,1.22,6.89l-5.67,3.24L210,775l5.68-3.25a25.35,25.35,0,0,0,5.4,4.49l-2.24,6.1,9.72,3.51,2.23-6.1a25,25,0,0,0,7.06,0l2.24,6.1,9.72-3.51Zm-13.13-8.07a13.09,13.09,0,1,1,13.08-13.09A13.1,13.1,0,0,1,234.41,768.16Z" transform="translate(176 -56)"/><path class="cls-31" d="M202.36,773.05a33.16,33.16,0,0,0,7.19-6l7.56,4.33L224,759.57l-7.55-4.31a32.74,32.74,0,0,0,1.63-9.17l8.58-1.5-2.39-13.44-8.58,1.5a33.07,33.07,0,0,0-4.71-8l5.61-6.63-10.54-8.76-5.61,6.61a33.43,33.43,0,0,0-8.82-3.19V704H177.85v8.63a33.37,33.37,0,0,0-8.83,3.19l-5.6-6.61L152.87,718l5.61,6.63a33.07,33.07,0,0,0-4.71,8l-8.58-1.5-2.39,13.44,8.58,1.5a32.74,32.74,0,0,0,1.63,9.17l-7.54,4.32,6.88,11.81,7.56-4.33a33.64,33.64,0,0,0,7.19,6l-3,8.12,12.93,4.67,3-8.12a33.63,33.63,0,0,0,9.4,0l3,8.12,12.94-4.67ZM184.88,762.3a17.43,17.43,0,1,1,17.43-17.42A17.45,17.45,0,0,1,184.88,762.3Z" transform="translate(176 -56)"/><g id="primo_quadro" data-name="primo quadro"><rect class="cls-29" x="500.57" y="410.91" width="153.4" height="302.87"/><rect class="cls-32" x="555.63" y="430.58" width="7.87" height="7.87"/><rect class="cls-32" x="571.37" y="430.58" width="43.27" height="7.87"/><rect class="cls-33" x="508.43" y="458.11" width="133.73" height="247.8"/><rect class="cls-34" x="520.23" y="469.91" width="114.07" height="23.6"/><rect class="cls-34" x="520.23" y="501.38" width="114.07" height="15.73"/><rect class="cls-35" x="526.13" y="475.81" width="23.6" height="11.8"/><rect class="cls-35" x="526.13" y="507.28" width="23.6" height="3.93"/><rect class="cls-34" x="520.23" y="532.85" width="114.07" height="23.6"/><rect class="cls-35" x="530.07" y="538.75" width="23.6" height="11.8"/><rect class="cls-34" x="520.23" y="576.11" width="114.07" height="23.6"/><rect class="cls-35" x="530.07" y="581.95" width="23.6" height="11.8"/><rect class="cls-34" x="520.23" y="611.51" width="114.07" height="86.53"/></g><g id="dati_1" data-name="dati 1"><rect class="cls-36" x="398.3" y="532.85" width="149.47" height="62.93"/><rect class="cls-37" x="408.13" y="570.21" width="3.93" height="15.73"/><rect class="cls-37" x="439.6" y="550.55" width="3.93" height="35.4"/><rect class="cls-37" x="447.47" y="554.48" width="3.93" height="31.47"/><line class="cls-38" x1="404.2" y1="585.95" x2="502.53" y2="585.95"/><rect class="cls-37" x="471.07" y="574.15" width="3.93" height="11.8"/><rect class="cls-37" x="478.93" y="566.28" width="3.93" height="19.67"/><rect class="cls-37" x="486.8" y="558.41" width="3.93" height="27.53"/><rect class="cls-37" x="494.67" y="550.55" width="3.93" height="35.4"/><rect class="cls-37" x="463.2" y="558.41" width="3.93" height="27.53"/><rect class="cls-37" x="455.33" y="574.15" width="3.93" height="11.8"/><rect class="cls-39" x="506.47" y="542.68" width="27.53" height="3.93"/></g><g id="uomo"><path class="cls-40" d="M316.7,754.05v19.66H358C352.05,763,346,758.56,340.3,758a36.35,36.35,0,0,0-3.93,0A51.23,51.23,0,0,1,316.7,754.05Z" transform="translate(176 -56)"/><path class="cls-40" d="M254.85,742.85l-7.32,18.25,38.33,15.37c-1.51-12.19-5.46-18.51-10.57-21.19a34.27,34.27,0,0,0-3.65-1.46A51.39,51.39,0,0,1,254.85,742.85Z" transform="translate(176 -56)"/><path class="cls-41" d="M261.63,650.85h62.94l7.86,106.2H316.7q-3.93-33.43-7.87-66.87l-19.66,3.93q-9.84,29.5-19.67,59l-19.67,3.94,15.74-47.2-11.8-59Z" transform="translate(176 -56)"/><path class="cls-42" d="M277.37,547.65v-7.87c-.45-1.08-2.58-6.47,0-11.8,2.92-6,9.66-7.43,11.8-7.87a19.91,19.91,0,0,1,7.86,0l-3.93,19.67a12.12,12.12,0,0,0-7.75,0l-.12,0v7.87a3.93,3.93,0,1,1-7.86,0Z" transform="translate(176 -56)"/><path class="cls-42" d="M265.57,655.71c-.31.15-7.16,3.29-11.8,0s-5.94-12.45,0-19.66h11.8Z" transform="translate(176 -56)"/><path class="cls-43" d="M273.43,545.65s-47.2,3.93-23.6,94.4H269.5a60.31,60.31,0,0,1-7.37-15.24,63.6,63.6,0,0,1-.5-35.9H316.7a38.15,38.15,0,0,0-2-20.16c-6.53-16.7-23-22.29-25.56-23.1a9.85,9.85,0,0,1-15.74,0Z" transform="translate(176 -56)"/><path class="cls-42" d="M307.66,597.52c-1.16-2.23-1.11-5.69,0-8.67h9v8.67C313.59,601.5,309.34,600.78,307.66,597.52Z" transform="translate(176 -56)"/><path class="cls-44" d="M297,520.11c2.48-2.71,2.61-6.06,1.16-7.5-1.23-1.22-3.6-1.05-5.09-.36-.63.28-1,.5-3.93,3.93h0s-1.94-2.93-3.94-3.93c-2.91-1.46-6.68.82-11.8,3.93-2.11,1.28-3.36,2.32-3.93,3.93a7.21,7.21,0,0,0,0,3.94c1.1,6.58-1.62,8.59,0,11.8,1.5,2.95,5.76,5.09,7.87,3.93,3.24-1.79-1.11-10.07,2.67-15.41C282.11,521.45,286.73,519.21,297,520.11Z" transform="translate(176 -56)"/></g><g id="dati_2" data-name="dati 2"><rect class="cls-42" x="555.63" y="591.85" width="106.2" height="43.27"/><rect class="cls-45" x="591.03" y="599.71" width="59" height="3.93"/><rect class="cls-45" x="563.5" y="611.51" width="90.47" height="11.8"/></g><g id="dati_3" data-name="dati 3"><g id="dati_3-2" data-name="dati 3"><rect class="cls-42" x="532.37" y="671.22" width="125.33" height="46.36"/><rect class="cls-45" x="591.03" y="679.64" width="52.74" height="2.67"/><rect class="cls-45" x="591.03" y="692.29" width="57.38" height="13.63"/></g><rect class="cls-45" x="539.9" y="682.31" width="27.53" height="27.53"/></g><path class="cls-46" d="M996.62,772.21a25.64,25.64,0,0,0,5.4-4.5l5.67,3.25,5.17-8.87-5.66-3.25a24.46,24.46,0,0,0,1.22-6.88l6.45-1.13-1.8-10.09-6.44,1.13a24.88,24.88,0,0,0-3.54-6l4.21-5-7.92-6.58-4.21,5a25,25,0,0,0-6.63-2.4v-6.48H978.2v6.48a25.25,25.25,0,0,0-6.63,2.4l-4.21-5-7.92,6.58,4.22,5a24.75,24.75,0,0,0-3.54,6l-6.44-1.13-1.8,10.09,6.45,1.13a24.6,24.6,0,0,0,1.22,6.89l-5.67,3.24,5.17,8.87,5.68-3.25a25.39,25.39,0,0,0,5.4,4.5l-2.24,6.1,9.72,3.5,2.23-6.09a25,25,0,0,0,7.06,0l2.24,6.09,9.72-3.5Zm-13.13-8.08a13.09,13.09,0,1,1,13.08-13.08A13.1,13.1,0,0,1,983.49,764.13Z" transform="translate(176 -56)"/><path class="cls-47" d="M540.9,699H513.37a15.21,15.21,0,0,0-7.87,3.93c-5.36,5.34-4.41,14-3.93,19.67a255.07,255.07,0,0,1,0,39.33H517.3V722.58h27.53l7.87,3.93s-23.6,43.27-7.87,47.2S596,761.91,596,761.91L592,750.11c-27.58,9.43-34.54,9.67-35.4,7.87-1.18-2.47,9.51-8.16,19.67-23.6,5.16-7.85,9.19-14,7.87-19.67C581.89,705,564.2,699,540.9,699Z" transform="translate(176 -56)"/><path class="cls-42" d="M532,602.65v19.66h11.8v7.87h7.87v-11.8c2.13-4,1.86-6.22,1.16-7.5-1.16-2.13-3.57-2.67-9-4.3C541,605.72,536.91,604.43,532,602.65Z" transform="translate(176 -56)"/><path class="cls-48" d="M532.7,602.84a2.75,2.75,0,0,1-1.18-.71l-3.42-3.42a5.45,5.45,0,0,1,0-3.93c1.48-3.47,7-3.87,7.87-3.93h7.86c2.86.17,4,1.67,7.87,3.93,5.41,3.17,6.3,2,7.87,3.93,1.19,1.51,2.69,6.83,0,11.8-1.07,2-4,6.1-6.84,5.61-2.63-.46-3-4.07-5.89-7.41C544.91,606.46,535.33,603.59,532.7,602.84Z" transform="translate(176 -56)"/><path class="cls-49" d="M540.9,628.18s3.93,3.93,11.8,0c28.37-14.18,47.84,73.64,31.47,86.53C571.31,724.84,536,703.48,537,699c0,0,0-.23,3.93-3.93h0s-1.23-18.53-1.47-31.47A297.87,297.87,0,0,1,540.9,628.18Z" transform="translate(176 -56)"/><path class="cls-42" d="M528.07,679.31,549,663.58a10.85,10.85,0,0,0-.67-6.7,9.07,9.07,0,0,0-6.31-5.1l-17.46,15.73-34.81,3.94-.12,7.86Z" transform="translate(176 -56)"/><path class="cls-42" d="M481.09,670.27c2.24-1.15,5.69-1.11,8.68,0v9h-8.68C477.12,676.2,477.83,672,481.09,670.27Z" transform="translate(176 -56)"/><polygon class="cls-50" points="661.83 717.71 693.3 717.71 693.3 705.91 677.57 705.91 673.63 709.85 661.83 709.85 661.83 717.71"/><polygon class="cls-50" points="786.15 717.79 778.61 688.95 767.19 691.94 770.97 706.36 775.71 708.97 778.54 719.78 786.15 717.79"/><path class="cls-51" d="M705.63,765a24.82,24.82,0,0,0,5.4-4.49l5.68,3.25,5.17-8.87-5.67-3.25a24.18,24.18,0,0,0,1.23-6.88l6.44-1.13-1.79-10.09-6.45,1.12a24.65,24.65,0,0,0-3.53-6l4.21-5-7.92-6.59-4.21,5a24.78,24.78,0,0,0-6.63-2.4v-6.48H687.22v6.48a24.78,24.78,0,0,0-6.63,2.4l-4.21-5-7.92,6.59,4.21,5a24.85,24.85,0,0,0-3.53,6l-6.45-1.13-1.79,10.09,6.44,1.13a24.54,24.54,0,0,0,1.23,6.88l-5.67,3.25,5.17,8.87,5.68-3.25a24.82,24.82,0,0,0,5.4,4.49l-2.24,6.11,9.71,3.5,2.24-6.09a26.08,26.08,0,0,0,7.06,0l2.24,6.09,9.72-3.5Zm-13.12-8.07a13.09,13.09,0,1,1,13.08-13.08A13.1,13.1,0,0,1,692.51,756.94Z" transform="translate(176 -56)"/><path d="M674.12,762.49a32,32,0,0,0,6.81-5.67l7.17,4.1,6.53-11.21-7.16-4.09a30.9,30.9,0,0,0,1.55-8.7l8.14-1.42-2.27-12.74-8.14,1.42a31,31,0,0,0-4.46-7.63l5.32-6.29-10-8.31-5.32,6.28a31.45,31.45,0,0,0-8.37-3V697h-13v8.19a31.45,31.45,0,0,0-8.37,3L637.18,702l-10,8.31,5.32,6.29a31,31,0,0,0-4.46,7.63l-8.14-1.42-2.27,12.74,8.14,1.42a30.9,30.9,0,0,0,1.55,8.7l-7.16,4.1,6.53,11.2,7.17-4.1a32,32,0,0,0,6.81,5.67l-2.83,7.71,12.27,4.42,2.83-7.69a32.17,32.17,0,0,0,8.91,0l2.83,7.69L677,770.2ZM657.54,752.3a16.52,16.52,0,1,1,16.52-16.52A16.54,16.54,0,0,1,657.54,752.3Z" transform="translate(176 -56)"/><rect class="cls-1" x="1016" y="425" width="104" height="157"/><path class="cls-52" d="M955.63,768.87a31.8,31.8,0,0,0,6.82-5.68l7.17,4.11,6.52-11.21L969,752a30.9,30.9,0,0,0,1.54-8.7l8.14-1.42-2.26-12.74-8.14,1.42a31.57,31.57,0,0,0-4.47-7.64l5.32-6.28-10-8.31-5.31,6.27a31.68,31.68,0,0,0-8.37-3v-8.19H932.38v8.19a31.68,31.68,0,0,0-8.37,3l-5.31-6.27-10,8.31,5.31,6.28a31.53,31.53,0,0,0-4.46,7.64l-8.14-1.42-2.26,12.74,8.14,1.42a30.9,30.9,0,0,0,1.54,8.7l-7.15,4.09,6.52,11.21,7.17-4.1a32.05,32.05,0,0,0,6.82,5.67l-2.83,7.7L931.63,781l2.82-7.7a31.24,31.24,0,0,0,8.92,0l2.82,7.7,12.27-4.43Zm-16.58-10.19a16.53,16.53,0,1,1,16.53-16.53A16.55,16.55,0,0,1,939.05,758.68Z" transform="translate(176 -56)"/></g><g id="Livello_5" data-name="Livello 5"><path class="cls-53" d="M733,758v15.71H712.1c-1.91-3.31-2-7.21-.1-9.71,2.66-3.56,9.28-4.3,14,0v-7h7Z" transform="translate(176 -56)"/><path class="cls-53" d="M744.89,757.67v15.71H724c-1.91-3.31-2-7.21-.1-9.71,2.66-3.56,9.28-4.3,14,0v-7h7Z" transform="translate(176 -56)"/><path class="cls-54" d="M710,616.38,725.66,758h7.81q1.95-49.77,3.91-99.54V758h7.81l11.72-141.65Z" transform="translate(176 -56)"/><path class="cls-42" d="M694.3,502.31a12,12,0,0,1-1.47-7.86,11.33,11.33,0,0,1,1.47-3.94c.78-4.89,2.19-11.79,3.93-11.8s3.44,7,3.94,11.8c.2,2,.18,3.49,0,11.8H694.3Z" transform="translate(176 -56)"/><path class="cls-42" d="M765.34,632.11a12,12,0,0,0-1.48,7.87,11.18,11.18,0,0,0,1.48,3.93c.78,4.9,2.18,11.8,3.93,11.8s3.44-7,3.93-11.8c.21-2,.18-3.48,0-11.8h-7.86Z" transform="translate(176 -56)"/><path class="cls-25" d="M717.9,553.45l-19.67-19.67-3.93-31.47s3.93-7.86,7.87,0l3.93,23.6,19.67,11.8,35.4,11.8s11.8-3.93,11.8,7.87v74.73H765.1l-3.93-55.06-3.94-3.94v43.27H710l7.87-59Z" transform="translate(176 -56)"/><path class="cls-55" d="M741.5,502.31s-15.73,7.87-15.73,43.27c0,0-19.67,15.73,19.66,27.53,0,0,31.47-15.73,15.74-31.46C761.17,541.65,761.17,502.31,741.5,502.31Z" transform="translate(176 -56)"/><path class="cls-56" d="M907.5,552.5h13v6s27,11-4,49c0,0-7,7-9,22h-32s1-50,30-64Z" transform="translate(176 -56)"/><path class="cls-42" d="M905.5,523.5l-1,9s-11,3,0,7h5v4h14v-7h-7v-8h-3v-5Z" transform="translate(176 -56)"/><polygon class="cls-57" points="1081.5 467.5 1081.5 464.5 1075.5 464.5 1075.5 460.5 1081.5 460.5 1081.5 455.5 1086.5 455.5 1086.5 459.5 1090.5 459.5 1090.5 452.5 1095.5 452.5 1095.5 459.5 1103.5 459.5 1103.5 467.5 1108.5 467.5 1108.5 479.5 1103.5 479.5 1103.5 483.5 1108.5 483.5 1108.5 490.5 1104.5 490.5 1104.5 495.5 1100.5 495.5 1100.5 489.5 1100.5 480.5 1093.61 480.5 1093.5 471.5 1090.5 471.5 1090.5 467.5 1081.5 467.5"/><polygon class="cls-57" points="1084.5 483.5 1073.5 483.5 1073.5 486.5 1076.5 486.5 1076.5 491.5 1076.5 494.5 1080.5 494.5 1080.5 499.5 1092.5 499.5 1092.5 494.5 1095.5 495.5 1095.5 492.5 1100.5 492.18 1100.5 488.38 1092.5 488.5 1084.5 483.5"/><path class="cls-58" d="M849.5,584.5,880.26,615a44.83,44.83,0,0,1-17.76,10.5c-2.66.82-19.12,5.59-34.91-3.72-20.76-12.24-21.07-37.47-21.06-38.63Z" transform="translate(176 -56)"/><path class="cls-42" d="M849.5,580.5h-43s1-43,43-43Z" transform="translate(176 -56)"/><path class="cls-25" d="M852.5,582.5l31,29c15-18.83,15.5-43.65,3-59-11.88-14.58-30.92-15-34-15Z" transform="translate(176 -56)"/><polyline class="cls-56" points="1068.2 528.91 1071.6 525.48 1079.5 517.5 1097.5 530.5 1083.5 543.5 1083.5 530.5"/><path class="cls-42" d="M892.5,584.5s13,0,13,12l-21,16-21,12h-28s-1-3,0-3h11v-3l14-1,16-11Z" transform="translate(176 -56)"/><path class="cls-59" d="M874.5,634.5a324.6,324.6,0,0,0,4.25,34.5,330.88,330.88,0,0,0,31.75,93.5h14a202,202,0,0,1-19-77,199.47,199.47,0,0,1,4-49Z" transform="translate(176 -56)"/><path class="cls-59" d="M876.5,643.5c-13.54,20.73-18.79,38.85-21,52-1.78,10.58-1,62-1,62h11l7-58,10.25-15.12Q879.63,663.94,876.5,643.5Z" transform="translate(176 -56)"/><rect class="cls-60" x="1050" y="573.5" width="36" height="8"/><rect class="cls-53" x="998" y="716" width="43" height="4"/><path class="cls-61" d="M822,772s-2-8,28-8v-7l16,1-1,14Z" transform="translate(176 -56)"/><circle class="cls-62" cx="1034" cy="709" r="3"/><rect class="cls-53" x="1057" y="718" width="43" height="4"/><path class="cls-61" d="M881,774s-2-8,28-8v-7l16,1-1,14Z" transform="translate(176 -56)"/><circle class="cls-62" cx="1093" cy="711" r="3"/></g></svg>