<svg id="Livello_2" data-name="Livello 2" xmlns="http://www.w3.org/2000/svg" viewBox="0 0 488.66 270.51"><defs><style>.cls-1{fill:#fff;}</style></defs><title>logoWhite</title><rect class="cls-1" y="236.5" width="210" height="33"/><path class="cls-1" d="M599.41,330.19c35.53-9.33,84.25-64.05,43.66-130.55C621.66,171,586,170,587.72,170L422,169v46H583s10.43,2,16.87,8.34C613.83,237.13,621.61,269,583,290H455s-23.38.23-29.74,22.1l-.4,126.9H468l-.2-98.69c.39,0,1.59-6.31,9.14-7.31H546l63.32,105.75,52.47-.63Z" transform="translate(-174 -168.5)"/><path class="cls-1" d="M609,439l-.15-.24L545.72,333H476.94a10.08,10.08,0,0,0-8.33,6.41,5.35,5.35,0,0,1-.31.6l.2,99H424.36v-.5l.4-127,0-.06c6.39-22,30-22.46,30.22-22.46H582.87c20.37-11,26.24-24.44,27.57-33.76,2-13.72-4.35-25.55-10.92-32.05C593.27,217,583,215,582.91,215H422V168.5h.52l165.48,1v0l.17,0c5.88.49,36.21,4.24,55.3,29.79,21,34.43,16.79,63.08,9.54,81.06-11.08,27.51-35,45.15-52.84,50.1l62.49,108Zm-183.68-1H467.5l-.21-99h.26s.09,0,.15-.16a11,11,0,0,1,9.17-6.91l69.41,0,.15.26L609.6,438l51.33-.49L598.65,329.87l.63-.17c17.66-4.63,41.72-22.16,52.8-49.67,7.16-17.77,11.34-46.1-9.44-80.13-18.81-25.17-48.75-28.87-54.56-29.36l-.19,0L423,169.5V214H583c.52.09,10.75,2.08,17.23,8.48,6.74,6.67,13.22,18.81,11.2,32.9-1.37,9.57-7.37,23.32-28.19,34.56l-.11.06H455c-.22,0-23,.49-29.24,21.67Z" transform="translate(-174 -168.5)"/></svg>