<svg xmlns="http://www.w3.org/2000/svg" viewBox="0 0 1281 801"><defs><style>.cls-1{fill:#176899;stroke:#000;}.cls-1,.cls-5{stroke-miterlimit:10;}.cls-2,.cls-3{fill:#fff;}.cls-2{opacity:0.36;}.cls-3{opacity:0.13;}.cls-4,.cls-5{fill:#d0ecf7;}.cls-5{stroke:#d0ecf7;stroke-width:2px;}</style></defs><title>graficaDevops</title><g id="sfondo_copia" data-name="sfondo copia"><rect class="cls-1" x="0.5" y="0.5" width="1280" height="800"/></g><g id="linea"><path class="cls-2" d="M1000.94,0c-49.85,61.2-113.75,160-109.7,279C896,418.35,985,481.43,965.6,582.74,953.33,646.78,897,727.31,703.86,800h210.2c140.5-82.48,177.49-161.55,186.16-217.26C1117.3,473,1030.36,411.53,1025.86,279c-4-119,59.85-217.78,109.7-279Z" transform="translate(0.5 0.5)"/><path class="cls-3" d="M852.36,0c-49.85,61.2-113.74,160-109.7,279,4.73,139.37,93.76,202.45,74.36,303.76-12.26,64-68.62,144.57-261.74,217.26H765.49C906,717.52,943,638.45,951.65,582.74,968.72,473,881.78,411.53,877.28,279,873.24,160,937.13,61.2,987,0Z" transform="translate(0.5 0.5)"/></g><g id="Livello_8" data-name="Livello 8"><path class="cls-4" d="M274.89,134.41c0-.95.05-1.82.05-2.51A42.88,42.88,0,0,0,232.05,89a42,42,0,0,0-25.24,8.74,47.45,47.45,0,0,0-12.75,14.39,24.22,24.22,0,0,0-11.28-2.74c-6.36,0-12.48,2.95-17.23,8.32A29.39,29.39,0,0,0,159,130.18a31.45,31.45,0,0,0-13.63,10.42,30.94,30.94,0,0,0-6.22,18.69,31.32,31.32,0,0,0,31.29,31.28v-.08H272v0A28.1,28.1,0,0,0,300,162.47,28.4,28.4,0,0,0,274.89,134.41ZM273.08,184h0l-104.52,0a24.89,24.89,0,0,1-5.93-48.4l.1-.05a2.74,2.74,0,0,0,2-2.2c1.44-8.68,9-17.46,18.07-17.46a17.8,17.8,0,0,1,10.32,3.27,3,3,0,0,0,1.08.65h0a3.22,3.22,0,0,0,4.07-1.69c6.18-13.27,19.95-22.63,33.81-22.63a36.43,36.43,0,0,1,36.39,36.39c0,1.36-.07,3.49-.2,5.36a3.25,3.25,0,0,0,2.71,3.43h0a4.07,4.07,0,0,0,.85,0h0a21.86,21.86,0,0,1,21.73,21.73A21.59,21.59,0,0,1,273.08,184Z" transform="translate(0.5 0.5)"/><path class="cls-5" d="M174.75,258.49c0-.62,0-1.18,0-1.62a27.55,27.55,0,0,0-27.58-27.58A27.07,27.07,0,0,0,131,234.9a30.44,30.44,0,0,0-8.2,9.26,15.65,15.65,0,0,0-7.25-1.76,14.84,14.84,0,0,0-11.09,5.35,18.91,18.91,0,0,0-4.19,8,20.24,20.24,0,0,0-8.76,6.71,19.87,19.87,0,0,0-4,12,20.14,20.14,0,0,0,20.12,20.12v-.05h65.28v0a18.07,18.07,0,0,0,18-18A18.26,18.26,0,0,0,174.75,258.49Zm-1.16,31.9H106.35a16,16,0,0,1-3.81-31.13l.06,0a1.74,1.74,0,0,0,1.27-1.41c.93-5.58,5.78-11.23,11.62-11.23a11.48,11.48,0,0,1,6.64,2.1,1.9,1.9,0,0,0,.7.42h0a2.07,2.07,0,0,0,2.62-1.09c4-8.54,12.83-14.55,21.75-14.55a23.42,23.42,0,0,1,23.4,23.4c0,.88,0,2.25-.13,3.45a2.1,2.1,0,0,0,1.75,2.21h0a2.56,2.56,0,0,0,.55,0h0a14.06,14.06,0,0,1,14,14A13.89,13.89,0,0,1,173.59,290.39Z" transform="translate(0.5 0.5)"/><path class="cls-5" d="M1141.5,196.12c0-.63,0-1.21,0-1.67A28.47,28.47,0,0,0,1113,166a28,28,0,0,0-16.77,5.8,31.74,31.74,0,0,0-8.48,9.57,16.12,16.12,0,0,0-7.49-1.82,15.3,15.3,0,0,0-11.45,5.53,19.49,19.49,0,0,0-4.33,8.28,20.82,20.82,0,0,0-9.06,6.92,20.61,20.61,0,0,0-4.13,12.43,20.82,20.82,0,0,0,20.79,20.79v-.06h67.45v0a18.66,18.66,0,0,0,18.65-18.65A18.87,18.87,0,0,0,1141.5,196.12Zm-1.2,33h-69.47a16.54,16.54,0,0,1-3.93-32.16l.06,0a1.81,1.81,0,0,0,1.31-1.46c1-5.77,6-11.6,12-11.6a11.86,11.86,0,0,1,6.86,2.17,2.16,2.16,0,0,0,.72.43h0a2.14,2.14,0,0,0,2.7-1.12c4.11-8.82,13.26-15,22.47-15a24.2,24.2,0,0,1,24.18,24.18c0,.91,0,2.32-.13,3.57a2.17,2.17,0,0,0,1.8,2.28h0a2.77,2.77,0,0,0,.57,0h0a14.52,14.52,0,0,1,14.44,14.44A14.34,14.34,0,0,1,1140.3,229.08Z" transform="translate(0.5 0.5)"/></g></svg>