<svg xmlns="http://www.w3.org/2000/svg" viewBox="0 0 299 299"><defs><style>.cls-1{fill:#fff;}</style></defs><title>logoGreen</title><g id="Livello_1" data-name="Livello 1"><circle class="cls-1" cx="149.5" cy="149.5" r="149.5"/></g><g id="Livello_2" data-name="Livello 2"><rect x="29" y="172.39" width="90.26" height="14.18"/><path d="M462.91,434.3c15.28-4,36.24-27.55,18.78-56.16-9.21-12.32-24.55-12.75-23.81-12.75L386.59,365v19.77h69.19s4.49.86,7.25,3.58c6,5.93,9.35,19.63-7.25,28.65h-55s-10.11.1-12.86,9.5L387.7,481h18.66l-.09-42.41a4.9,4.9,0,0,1,3.94-3.15H440L467.24,481l22.5-.27Z" transform="translate(-251 -294)"/><path d="M466.93,480.81l-.06-.11-27-45.26H410.07a4.33,4.33,0,0,0-3.58,2.76c0,.09-.08.17-.13.26l.08,42.54H387.88V426.3s12.82-9.66,12.92-9.77h55c8.76-4.61,11.28-10.39,11.85-14.4a16.46,16.46,0,0,0-4.69-13.77c-2.69-2.66-7.1-3.52-7.14-3.63H386.59V365h.22l71.12.43h.17c2.52.21,15.51,1.81,23.68,12.76,9,14.74,7.19,27,4.09,34.71-4.75,11.78-15,19.34-22.63,21.46L490,480.57Zm-78.81-.24h18.24L406.27,438h.11s0,0,.06-.07a4.69,4.69,0,0,1,3.9-2.94h29.71l.06.11,27.13,45.45,21.86-.21-26.72-46.18.27-.08c7.58-2,17.9-9.5,22.65-21.31,3.08-7.62,4.87-19.78-4.05-34.38-8.07-10.8-20.91-12.38-23.41-12.59h-.08L387,365.37V384.3h68.76a16,16,0,0,1,7.41,3.64A17,17,0,0,1,468,402.08c-.59,4.12-3.17,10-12.11,14.86l-.05,0H401c-.09,0-9.95.21-12.64,9.32Z" transform="translate(-251 -294)"/></g></svg>